<?xml version="1.0" standalone="no"?>
<!DOCTYPE svg PUBLIC "-//W3C//DTD SVG 20010904//EN"
 "http://www.w3.org/TR/2001/REC-SVG-20010904/DTD/svg10.dtd">
<svg version="1.0" xmlns="http://www.w3.org/2000/svg"
 width="512.000000pt" height="512.000000pt" viewBox="0 0 512.000000 512.000000"
 preserveAspectRatio="xMidYMid meet">
<metadata>
Created by potrace 1.15, written by Peter Selinger 2001-2017
</metadata>
<g transform="translate(0.000000,512.000000) scale(0.100000,-0.100000)"
fill="#000000" stroke="none">
<path d="M3110 4984 c0 -24 -85 -189 -125 -244 -71 -96 -168 -163 -286 -196
-118 -33 -115 -33 -153 -8 -45 31 -56 52 -56 107 0 58 46 129 137 214 37 34
65 64 63 67 -16 15 -265 -58 -370 -110 -109 -53 -211 -163 -282 -303 -86 -169
-103 -256 -103 -516 0 -242 8 -311 81 -671 24 -120 95 -320 186 -524 186 -414
232 -574 194 -673 -9 -24 -28 -55 -42 -68 -25 -24 -26 -24 -41 -4 -8 11 -31
54 -51 95 -29 62 -36 89 -39 160 -3 47 -1 109 5 138 6 35 6 52 -1 52 -5 0 -38
-30 -73 -66 -75 -78 -118 -161 -136 -262 -10 -62 -9 -82 9 -174 37 -186 121
-340 235 -427 29 -23 58 -45 63 -49 6 -4 28 -16 49 -26 34 -16 55 -18 135 -13
53 3 121 13 151 21 30 8 82 22 114 31 71 20 195 81 287 141 104 69 103 66 29
132 -138 123 -295 375 -364 582 -49 152 -89 341 -90 435 -1 70 2 86 27 127 15
26 49 63 75 83 26 19 52 38 57 43 18 14 150 80 175 87 58 17 188 105 260 176
82 81 128 157 156 259 18 69 32 320 17 320 -6 0 -47 -38 -92 -84 -124 -126
-295 -242 -386 -261 -17 -3 -41 -9 -55 -12 -14 -3 -53 -6 -86 -7 -85 0 -146
37 -187 114 -26 50 -28 62 -25 130 4 53 11 87 27 115 35 63 99 122 165 153
261 125 258 123 341 207 49 49 94 105 115 145 34 63 35 68 34 175 -1 96 -5
123 -32 205 -49 145 -74 200 -94 200 -10 0 -18 -7 -18 -16z"/>
<path d="M1432 1481 c-23 -32 -49 -75 -57 -95 -17 -41 -18 -130 -1 -201 l11
-50 170 -7 c153 -5 210 -14 250 -39 6 -4 26 -10 45 -14 19 -4 51 -16 70 -26
19 -11 38 -19 41 -19 3 0 67 -29 142 -65 75 -36 139 -65 142 -65 3 0 27 -10
53 -22 26 -11 63 -25 82 -29 19 -4 67 -17 105 -29 68 -21 167 -45 310 -75 91
-19 101 -21 155 -35 25 -6 92 -22 150 -35 126 -29 250 -63 352 -99 42 -14 80
-26 83 -26 4 0 5 17 1 37 -38 208 -36 265 7 279 12 4 24 10 27 13 3 4 33 24
68 45 35 21 61 43 59 49 -3 11 -24 17 -132 37 -171 31 -224 43 -260 55 -22 7
-78 21 -125 30 -47 9 -98 20 -115 25 -93 28 -325 108 -345 119 -9 5 -31 12
-50 16 -19 4 -48 13 -65 20 -39 18 -263 92 -295 99 -80 15 -173 37 -181 42 -5
2 -21 7 -36 9 -16 2 -77 14 -138 25 -232 46 -231 46 -285 53 -73 11 -169 27
-182 32 -7 3 -31 -20 -56 -54z"/>
<path d="M3748 1515 c-2 -3 -24 -7 -49 -11 -60 -8 -75 -10 -144 -23 -150 -27
-244 -42 -290 -47 -27 -3 -75 -12 -105 -19 -30 -8 -120 -24 -200 -36 -80 -12
-160 -24 -177 -26 -22 -4 -33 -11 -33 -22 0 -12 31 -26 128 -55 70 -21 159
-48 197 -61 39 -13 111 -35 160 -50 50 -15 115 -36 146 -46 30 -11 71 -19 90
-19 29 0 154 28 269 61 19 6 57 15 84 21 65 15 86 48 86 141 0 38 -5 78 -11
90 -33 64 -126 127 -151 102z"/>
<path d="M1680 1037 c-19 -5 -73 -23 -119 -39 -46 -15 -92 -28 -103 -28 -10 0
-18 -6 -18 -14 0 -15 21 -26 48 -26 41 0 93 -23 125 -55 61 -61 85 -182 52
-262 -8 -20 -14 -38 -11 -40 2 -2 73 19 157 48 85 28 161 53 169 54 17 3 41
11 85 30 17 7 57 21 90 30 33 9 67 19 75 24 8 4 36 14 63 22 76 22 63 37 -58
65 -16 4 -39 9 -50 11 -60 11 -225 76 -368 146 -54 26 -99 47 -100 46 -1 -1
-18 -6 -37 -12z"/>
<path d="M3785 930 c-4 -6 -41 -28 -83 -49 -120 -61 -141 -89 -129 -174 13
-89 36 -146 67 -162 64 -33 143 -13 202 53 62 69 73 97 73 194 0 82 -1 88 -29
117 -30 32 -87 43 -101 21z"/>
<path d="M1350 895 c-51 -23 -98 -62 -115 -95 -18 -35 -20 -161 -4 -193 17
-32 60 -77 91 -93 16 -8 56 -14 96 -14 57 0 74 4 102 25 74 55 110 146 91 229
-11 47 -34 79 -84 120 -45 36 -122 45 -177 21z"/>
</g>
</svg>
